# Blender 5.2.0 LTS
# www.blender.org
mtllib custom_dagger.mtl
#arx_action primary_attach 0.46 0.0 -7.358
#arx_action hit_15 -2.4 0.0 45
#arx_action hit_30 -9.88 0.0 23.557
o Model
v 1.667452 0.491890 2.889046
v 1.089444 0.498124 9.696387
v 0.851272 0.498125 12.418714
v 3.634933 0.498127 19.794479
v 3.180636 0.262724 47.285130
v 0.255840 0.341194 37.852440
v 0.584223 0.419661 28.704372
v 1.439199 0.301959 42.544373
v 2.031529 0.502914 44.144775
v 1.911018 0.466741 23.314373
v 0.188633 0.380428 33.258163
v 0.629733 0.321577 40.179356
v 1.808678 0.498127 17.257292
v 1.016907 0.498126 14.810614
v 1.167516 1.157553 0.890194
v -0.858886 1.157555 0.348066
v 0.925914 0.945694 -5.208379
v -0.840689 0.945695 -5.328886
v 1.135031 0.696820 -9.736217
v 0.854246 0.589800 -14.666080
v -0.157075 0.696821 -9.698577
v -0.228353 0.589800 -14.488368
v 1.208826 0.822575 -1.494967
v 1.177117 0.749740 -3.223118
v -0.322978 0.822576 -1.795040
v -0.220908 0.749741 -3.421291
v 1.089930 0.795128 -6.368549
v -0.393251 0.795129 -6.441423
v 1.116725 0.915728 0.063832
v -0.586623 0.915729 -0.348464
v 1.068616 0.822286 -4.214566
v -0.466229 0.822286 -4.369126
v -6.722455 1.157558 -1.548245
v -6.777780 1.318796 -1.352527
v -2.266998 1.503000 0.184708
v -2.193739 1.157555 -0.009050
v 5.194916 1.502996 1.891370
v 5.337477 1.157551 1.701391
v 5.255882 1.502997 4.084000
v 5.383446 1.261956 4.311418
v 2.631028 1.157553 1.281730
v 2.619015 1.502997 1.491874
v 2.510363 1.366362 3.392553
v 2.530908 1.502998 3.033153
v -3.169264 1.366366 2.571043
v -3.039357 1.503001 2.227462
v -4.800985 1.503003 2.239816
v -4.935116 1.366367 2.583427
v -3.873306 1.503001 -0.136665
v -3.797843 1.157556 -0.329982
v 4.415645 1.502997 3.952475
v 3.926660 1.366361 4.083383
v 3.903400 1.502997 1.743592
v 3.979489 1.157552 1.546007
v 5.904926 1.157551 3.054039
v 5.682857 1.502996 3.054490
v 0.672464 1.149309 -21.055889
v -2.049821 1.859645 -21.294058
v -0.758030 1.859645 -18.727474
v -3.480315 1.149313 -18.965643
v -0.940664 0.568884 -17.945587
v 0.059934 0.568095 -18.448797
v -1.658335 0.566836 42.273373
v -4.218146 0.639907 39.755222
v -5.726476 0.557056 37.329056
v -7.232558 0.493824 32.608894
v -8.320226 0.463168 22.419258
v -7.887092 0.490503 27.963230
v -8.431834 0.436194 18.738777
v -8.428307 0.487364 16.361673
v -3.786439 0.900917 12.012967
v -2.691478 0.818875 11.040062
v -2.922964 0.853674 11.482851
v -2.474624 0.777817 10.336443
v -3.428258 0.882868 11.793067
v -8.355049 0.517027 14.118708
v 1.309087 0.495755 7.109598
v -2.326193 0.805476 9.397559
v -1.858542 0.835457 6.832467
v 1.667451 -0.491890 2.889047
v -2.960504 0.000003 2.484154
v 1.792108 0.000004 12.501026
v -4.241961 0.000007 9.229951
v 2.484150 -0.000000 2.960498
v -11.013718 0.000013 11.380664
v 2.030280 0.000003 9.778700
v 1.089443 -0.498117 9.696387
v 0.851271 -0.498116 12.418714
v 4.575768 0.000005 19.876791
v -11.347121 0.000016 18.483723
v 3.634932 -0.498115 19.794479
v 3.707249 0.000018 47.331203
v 3.180636 -0.262688 47.285130
v -1.145016 0.000021 46.906685
v 4.866451 0.000018 50.241615
v 1.386984 0.000011 28.774611
v 0.920526 0.000016 37.910599
v 0.255839 -0.341162 37.852440
v 0.584222 -0.419637 28.704374
v -9.132838 0.000022 37.031040
v -10.859309 0.000019 27.703196
v 2.034849 0.000017 42.596489
v 1.439199 -0.301925 42.544373
v -6.554537 0.000023 41.845013
v 2.603878 0.000017 44.194855
v 2.031528 -0.502879 44.144779
v -4.217290 0.000022 44.343693
v 1.911017 -0.466723 23.314373
v -11.214609 0.000017 22.166033
v 2.796625 0.000008 23.391855
v 0.922357 0.000014 33.322357
v 0.188633 -0.380399 33.258163
v -10.241083 0.000021 32.345684
v 0.629733 -0.321543 40.179356
v -8.061474 0.000023 39.418976
v 1.259901 0.000016 40.234489
v 1.639870 0.000020 48.746845
v 3.174383 0.000019 49.610783
v 1.957743 0.000005 14.892926
v 2.749514 0.000006 17.339605
v 1.808677 -0.498114 17.257292
v 1.016907 -0.498115 14.810615
v -11.272284 0.000015 16.112858
v -11.164710 0.000014 13.911282
v -6.071935 0.000009 10.702033
v -5.150506 0.000008 10.083138
v -7.664669 0.000010 11.173726
v 2.205909 -0.000001 1.222901
v 1.167514 -1.157554 0.890195
v -0.858888 -1.157553 0.348067
v -1.911883 0.000001 0.119542
v 1.809215 -0.000003 -5.148125
v 0.925913 -0.945700 -5.208378
v -0.840690 -0.945699 -5.328885
v -1.723991 -0.000001 -5.389139
v 1.781083 -0.000005 -9.755035
v 1.395546 -0.000007 -14.754933
v 1.135030 -0.696830 -9.736217
v 0.854246 -0.589814 -14.666079
v -0.157076 -0.696829 -9.698576
v -0.228354 -0.589813 -14.488367
v -0.803129 -0.000004 -9.679756
v -0.769654 -0.000006 -14.399514
v 1.208825 -0.822578 -1.494966
v 1.177116 -0.749744 -3.223117
v 1.974728 -0.000002 -1.344930
v 1.876130 -0.000003 -3.124031
v -1.088881 -0.000000 -1.945076
v -0.919922 -0.000001 -3.520377
v -0.322979 -0.822577 -1.795039
v -0.220909 -0.749743 -3.421291
v 1.831520 -0.000004 -6.332113
v 1.089929 -0.795135 -6.368549
v -0.393252 -0.795134 -6.441422
v -1.134842 -0.000002 -6.477859
v 1.116724 -0.915729 0.063833
v 1.968399 -0.000001 0.269981
v -1.438298 0.000001 -0.554612
v -0.586624 -0.915728 -0.348463
v 1.068615 -0.822291 -4.214565
v 1.836038 -0.000003 -4.137286
v -1.233652 -0.000001 -4.446405
v -0.466230 -0.822290 -4.369126
v -6.722456 0.000004 -1.548245
v 5.337476 -0.000003 1.701391
v 5.383445 -0.000002 4.311419
v -3.169265 0.000003 2.571043
v 2.510362 -0.000000 3.392553
v 2.631027 -0.000001 1.281731
v -2.193740 0.000002 -0.009049
v -4.935117 0.000005 2.583428
v -3.797844 0.000002 -0.329982
v 3.926659 -0.000001 4.083383
v 3.979488 -0.000002 1.546008
v 5.904925 -0.000003 3.054039
v -6.722457 -1.157550 -1.548244
v -6.777781 -1.318788 -1.352526
v -8.311547 0.000008 4.073372
v -2.266999 -1.502997 0.184709
v -2.193740 -1.157552 -0.009049
v 5.194914 -1.503001 1.891371
v 5.337475 -1.157557 1.701392
v 5.255880 -1.503000 4.084001
v 5.383444 -1.261960 4.311419
v -10.682697 0.000006 -4.328214
v 2.631027 -1.157555 1.281731
v 2.619014 -1.503000 1.491875
v 2.510361 -1.366362 3.392554
v 2.530906 -1.502999 3.033155
v -3.169266 -1.366359 2.571044
v -3.039359 -1.502995 2.227463
v -4.800987 -1.502994 2.239817
v -4.935118 -1.366358 2.583429
v -3.873308 -1.502996 -0.136664
v -3.797844 -1.157551 -0.329981
v 4.415643 -1.503000 3.952477
v 3.926658 -1.366363 4.083384
v 3.903398 -1.503000 1.743594
v 3.979487 -1.157556 1.546008
v 5.904924 -1.157557 3.054040
v 5.682855 -1.503001 3.054492
v -1.165754 -0.000009 -22.733089
v 0.672462 -1.149328 -21.055889
v -2.049824 -1.859660 -21.294056
v -3.732329 -0.000007 -21.441257
v -0.758032 -1.859660 -18.727474
v -3.480317 -1.149324 -18.965643
v 0.924476 -0.000009 -18.580275
v -1.642099 -0.000006 -17.288437
v -3.480316 -0.000006 -18.965643
v 0.672463 -0.000010 -21.055889
v -1.385071 -0.000007 -17.417809
v -0.940665 -0.568898 -17.945587
v 0.059933 -0.568111 -18.448797
v 0.617976 -0.000008 -18.426004
v -1.658336 -0.566798 42.273373
v -4.218147 -0.639867 39.755222
v -5.726477 -0.557016 37.329060
v -7.232559 -0.493786 32.608894
v -8.320227 -0.463137 22.419258
v -7.887093 -0.490468 27.963232
v -8.431835 -0.436166 18.738777
v -8.428308 -0.487338 16.361673
v -3.786440 -0.900901 12.012968
v -2.691479 -0.818862 11.040063
v -2.922965 -0.853660 11.482852
v -2.474625 -0.777805 10.336443
v -3.428259 -0.882853 11.793067
v -8.355050 -0.517004 14.118709
v -3.755007 0.000005 6.666549
v 2.202751 0.000002 7.187784
v 1.309086 -0.495751 7.109599
v -2.326194 -0.805465 9.397560
v -1.858543 -0.835449 6.832468
v -3.125740 0.000004 3.353988
vn 0.2535 0.9670 -0.0255
vn 0.2839 0.9585 0.0264
vn 0.2730 0.9620 0.0021
vn 0.3161 0.9473 -0.0512
vn 0.1987 0.9797 -0.0252
vn 0.2504 0.9680 -0.0178
vn 0.2287 0.9725 0.0444
vn 0.2821 0.9464 -0.1574
vn 0.3178 0.9439 -0.0897
vn 0.2161 0.9730 0.0811
vn 0.2394 0.9708 0.0141
vn 0.2624 0.9632 -0.0586
vn 0.2201 0.9705 -0.0985
vn 0.2380 0.9709 -0.0280
vn 0.3669 0.6318 -0.6828
vn 0.0238 0.6573 -0.7533
vn 0.3562 0.9344 0.0014
vn -0.4605 0.8876 0.0014
vn 0.4068 0.9130 -0.0322
vn 0.4103 0.9096 -0.0658
vn -0.3914 0.9196 -0.0352
vn -0.3790 0.9249 0.0295
vn 0.4140 0.9094 -0.0392
vn 0.4150 0.9097 -0.0160
vn -0.3711 0.9235 -0.0971
vn -0.3723 0.9269 0.0475
vn 0.4185 0.9074 -0.0391
vn -0.3554 0.9214 -0.1573
vn 0.4259 0.8897 -0.1643
vn -0.3213 0.9053 -0.2777
vn 0.4007 0.9154 0.0387
vn -0.3861 0.8968 0.2163
vn 0.3673 0.4740 -0.8003
vn -0.0747 0.9654 -0.2497
vn 0.1135 0.8648 -0.4890
vn 0.2275 0.2547 -0.9399
vn 0.3422 0.8216 -0.4560
vn 0.5775 0.2726 -0.7695
vn 0.2560 0.8732 0.4147
vn 0.4665 0.3582 0.8087
vn 0.2116 0.2600 -0.9422
vn 0.1083 0.8749 -0.4721
vn -0.2432 0.5903 0.7697
vn -0.0460 0.9860 0.1603
vn -0.0526 0.5771 0.8150
vn -0.0141 0.9846 0.1745
vn -0.1192 0.9767 0.1784
vn -0.0226 0.6648 0.7467
vn 0.1127 0.8844 -0.4529
vn 0.2725 0.2751 -0.9220
vn -0.0452 0.9405 0.3367
vn -0.2683 0.5229 0.8091
vn 0.0753 0.8754 -0.4774
vn 0.1462 0.2682 -0.9522
vn 0.9645 0.2642 -0.0041
vn 0.5612 0.8277 -0.0011
vn 0.7458 0.5504 -0.3754
vn -0.2223 0.8691 -0.4418
vn 0.2223 0.8691 0.4418
vn -0.7458 0.5504 0.3754
vn 0.1507 0.7813 0.6057
vn 0.4627 0.7069 0.5349
vn -0.0172 0.9977 0.0652
vn -0.0569 0.9974 0.0447
vn -0.0773 0.9968 0.0215
vn -0.0809 0.9966 0.0141
vn -0.0809 0.9967 -0.0010
vn -0.0814 0.9967 0.0076
vn -0.0777 0.9969 0.0096
vn -0.0833 0.9964 0.0124
vn -0.0568 0.9949 -0.0839
vn -0.0728 0.9918 -0.1055
vn -0.0354 0.9944 -0.0994
vn -0.1215 0.9914 -0.0483
vn -0.0381 0.9873 -0.1545
vn -0.1018 0.9948 -0.0073
vn 0.3012 0.9533 0.0229
vn -0.1563 0.9877 -0.0086
vn -0.1474 0.9875 -0.0560
vn 0.2535 -0.9670 -0.0255
vn -0.9824 -0.0000 -0.1866
vn 1.0000 -0.0000 0.0054
vn -0.9108 -0.0000 -0.4130
vn 0.9967 -0.0000 0.0807
vn -0.7944 -0.0000 -0.6074
vn 0.9970 -0.0000 0.0769
vn 0.2839 -0.9585 0.0264
vn 0.2730 -0.9620 0.0021
vn 0.9990 -0.0000 -0.0438
vn -0.9993 -0.0000 0.0374
vn 0.3161 -0.9473 -0.0512
vn 0.9345 -0.0000 -0.3559
vn 0.1987 -0.9797 -0.0252
vn -0.6057 -0.0000 0.7957
vn 0.6501 -0.0000 0.7598
vn 0.9831 -0.0000 0.1828
vn 0.9969 -0.0000 -0.0785
vn 0.2504 -0.9680 -0.0178
vn 0.2287 -0.9725 0.0444
vn -0.9538 -0.0000 0.3004
vn -0.9961 -0.0000 0.0883
vn 0.9098 -0.0000 -0.4151
vn 0.2821 -0.9464 -0.1574
vn -0.7682 -0.0000 0.6402
vn 0.9541 -0.0000 -0.2996
vn 0.3178 -0.9439 -0.0897
vn -0.6357 -0.0000 0.7720
vn 0.2161 -0.9730 0.0811
vn -0.9995 -0.0000 0.0329
vn 0.9284 -0.0000 0.3717
vn 0.9987 -0.0000 0.0513
vn 0.2394 -0.9708 0.0141
vn -0.9846 -0.0000 0.1745
vn 0.2624 -0.9632 -0.0586
vn -0.8956 -0.0000 0.4449
vn 0.9697 -0.0000 -0.2443
vn -0.5262 -0.0000 0.8504
vn -0.4031 -0.0000 0.9151
vn 0.9776 -0.0000 -0.2106
vn 0.8665 -0.0000 -0.4993
vn 0.2201 -0.9705 -0.0985
vn 0.2380 -0.9709 -0.0280
vn -0.9998 -0.0000 -0.0208
vn -0.9985 -0.0000 -0.0542
vn -0.3483 -0.0000 -0.9374
vn -0.6145 -0.0000 -0.7889
vn -0.0893 -0.0000 -0.9960
vn 0.4786 -0.0000 -0.8780
vn 0.3669 -0.6318 -0.6828
vn 0.0238 -0.6573 -0.7533
vn -0.0022 -0.0000 -1.0000
vn 1.0000 -0.0000 -0.0046
vn 0.3562 -0.9344 0.0014
vn -0.4605 -0.8876 0.0014
vn -0.9998 -0.0000 -0.0176
vn 0.9990 -0.0000 -0.0456
vn 0.9897 -0.0000 -0.1429
vn 0.4068 -0.9130 -0.0322
vn 0.4103 -0.9096 -0.0657
vn -0.3914 -0.9196 -0.0352
vn -0.3790 -0.9249 0.0295
vn -0.9985 -0.0000 -0.0556
vn -0.9955 -0.0000 0.0944
vn 0.4140 -0.9094 -0.0392
vn 0.4150 -0.9097 -0.0160
vn 0.9997 -0.0000 -0.0231
vn 0.9988 -0.0000 -0.0487
vn -0.9847 -0.0000 -0.1744
vn -0.9911 -0.0000 0.1333
vn -0.3711 -0.9235 -0.0971
vn -0.3723 -0.9269 0.0475
vn 1.0000 -0.0000 0.0028
vn 0.4185 -0.9074 -0.0391
vn -0.3554 -0.9214 -0.1573
vn -0.9488 -0.0000 -0.3159
vn 0.4259 -0.8897 -0.1643
vn 0.9883 -0.0000 -0.1525
vn -0.8989 -0.0000 -0.4382
vn -0.3213 -0.9053 -0.2777
vn 0.4007 -0.9154 0.0387
vn 0.9994 -0.0000 -0.0339
vn -0.9144 -0.0000 0.4047
vn -0.3861 -0.8968 0.2163
vn 0.4824 -0.0000 -0.8760
vn 0.6002 -0.0000 -0.7999
vn 0.4892 -0.0000 0.8722
vn -0.0683 -0.0000 0.9977
vn -0.2943 -0.0000 0.9557
vn 0.1648 -0.0000 -0.9863
vn 0.3077 -0.0000 -0.9515
vn 0.2097 -0.0000 0.9778
vn 0.2918 -0.0000 -0.9565
vn -0.2999 -0.0000 0.9540
vn 0.1531 -0.0000 -0.9882
vn 1.0000 -0.0000 -0.0020
vn 0.3673 -0.4740 -0.8003
vn -0.0747 -0.9654 -0.2497
vn -0.5808 -0.0000 0.8141
vn 0.1135 -0.8648 -0.4890
vn 0.2275 -0.2547 -0.9399
vn 0.3421 -0.8216 -0.4560
vn 0.5775 -0.2726 -0.7695
vn 0.2560 -0.8732 0.4147
vn 0.4665 -0.3582 0.8087
vn -0.6623 -0.0000 -0.7492
vn 0.2116 -0.2600 -0.9422
vn 0.1083 -0.8749 -0.4720
vn -0.2432 -0.5903 0.7697
vn -0.0460 -0.9860 0.1603
vn -0.0526 -0.5771 0.8150
vn -0.0141 -0.9846 0.1745
vn -0.1192 -0.9767 0.1784
vn -0.0226 -0.6648 0.7467
vn 0.1127 -0.8844 -0.4529
vn 0.2725 -0.2751 -0.9220
vn -0.0452 -0.9405 0.3367
vn -0.2683 -0.5229 0.8091
vn 0.0753 -0.8754 -0.4774
vn 0.1462 -0.2682 -0.9522
vn 0.9645 -0.2642 -0.0041
vn 0.5612 -0.8277 -0.0011
vn 0.0877 -0.0000 -0.9961
vn 0.7458 -0.5504 -0.3754
vn -0.2223 -0.8691 -0.4418
vn -0.8524 -0.0000 -0.5230
vn 0.2223 -0.8691 0.4418
vn -0.7458 -0.5504 0.3754
vn 0.8524 -0.0000 0.5230
vn -0.0877 -0.0000 0.9961
vn -0.8932 -0.0000 0.4496
vn 0.8932 -0.0000 -0.4496
vn -0.2293 -0.0000 0.9734
vn 0.1507 -0.7813 0.6057
vn 0.4627 -0.7069 0.5349
vn 0.8135 -0.0000 0.5816
vn -0.0172 -0.9977 0.0652
vn -0.0569 -0.9974 0.0447
vn -0.0773 -0.9968 0.0215
vn -0.0809 -0.9966 0.0141
vn -0.0809 -0.9967 -0.0010
vn -0.0814 -0.9967 0.0076
vn -0.0777 -0.9969 0.0096
vn -0.0833 -0.9964 0.0124
vn -0.0568 -0.9949 -0.0839
vn -0.0728 -0.9918 -0.1055
vn -0.0354 -0.9944 -0.0994
vn -0.1215 -0.9914 -0.0483
vn -0.0381 -0.9873 -0.1545
vn -0.1018 -0.9948 -0.0073
vn -0.9843 -0.0000 -0.1765
vn 0.9974 -0.0000 0.0727
vn 0.3012 -0.9533 0.0229
vn -0.1563 -0.9877 -0.0086
vn -0.1474 -0.9875 -0.0560
vn -0.8521 -0.0000 -0.5233
vt 0.765571 0.111097
vt 0.829534 0.163212
vt 0.829401 0.111097
vt 0.847409 0.111097
vt 0.848493 0.163212
vt 0.722102 0.163212
vt 0.759381 0.182247
vt 0.760706 0.163212
vt 0.829534 0.218068
vt 0.898105 0.360696
vt 0.876104 0.313154
vt 0.857145 0.313154
vt 0.596206 0.360696
vt 0.650863 0.313154
vt 0.593554 0.313154
vt 0.937117 0.911241
vt 0.920177 0.850451
vt 0.908643 0.850451
vt 0.849952 0.911241
vt 0.784029 0.865362
vt 0.976002 0.967414
vt 0.947729 0.911241
vt 0.908863 0.943167
vt 0.622091 0.544211
vt 0.663622 0.434102
vt 0.605298 0.434102
vt 0.672936 0.727726
vt 0.703200 0.635969
vt 0.642576 0.635969
vt 0.869789 0.434102
vt 0.868863 0.544211
vt 0.887635 0.434102
vt 0.862125 0.727726
vt 0.867528 0.635969
vt 0.852743 0.635969
vt 0.732918 0.819483
vt 0.775984 0.773605
vt 0.698539 0.773605
vt 0.893998 0.819483
vt 0.886371 0.773605
vt 0.873673 0.773605
vt 0.831581 0.819483
vt 0.906001 0.819483
vt 0.917064 0.360696
vt 0.654951 0.360696
vt 0.852687 0.544211
vt 0.681983 0.544211
vt 0.875519 0.727726
vt 0.741577 0.727726
vt 0.941061 0.957759
vt 0.590446 0.218068
vt 0.648403 0.268172
vt 0.736081 0.218068
vt 0.591854 0.268939
vt 0.837031 0.265611
vt 0.848493 0.218068
vt 0.855990 0.265611
vt 0.742859 0.213044
vt 0.752421 0.205957
vt 0.705426 0.181863
vt 0.688083 0.195851
vt 0.756275 0.196697
vt 0.657057 0.208071
vt 0.152436 0.205397
vt 0.203664 0.450548
vt 0.203664 0.205397
vt 0.082509 0.617788
vt 0.152436 0.678393
vt 0.152436 0.617788
vt 0.030871 0.617788
vt 0.082509 0.678393
vt 0.203664 0.941741
vt 0.152436 0.985248
vt 0.203664 0.985248
vt 0.152436 0.941741
vt 0.082509 0.985248
vt 0.030871 0.941741
vt 0.082509 0.941741
vt 0.203664 0.678393
vt 0.203664 0.617788
vt 0.030871 0.205397
vt 0.082509 0.450548
vt 0.082509 0.205397
vt 0.152436 0.450548
vt 0.082509 0.730319
vt 0.030871 0.780363
vt 0.082509 0.780363
vt 0.030871 0.865089
vt 0.082509 0.865089
vt 0.152436 0.730319
vt 0.152436 0.780363
vt 0.152436 0.865089
vt 0.203664 0.730319
vt 0.203664 0.780363
vt 0.203664 0.865089
vt 0.030871 0.450548
vt 0.030871 0.730319
vt 0.346183 0.434885
vt 0.275141 0.364178
vt 0.284937 0.440244
vt 0.532441 0.464318
vt 0.480710 0.460998
vt 0.531591 0.478210
vt 0.404223 0.861966
vt 0.335103 0.900457
vt 0.394212 0.912231
vt 0.465514 0.824985
vt 0.439157 0.903964
vt 0.493806 0.868111
vt 0.462562 0.458640
vt 0.374829 0.703581
vt 0.447241 0.692457
vt 0.352463 0.358997
vt 0.494573 0.242932
vt 0.240443 0.204722
vt 0.356708 0.706493
vt 0.291601 0.701846
vt 0.557552 0.251120
vt 0.595099 0.038209
vt 0.506113 0.243174
vt 0.466789 0.383295
vt 0.363842 0.438247
vt 0.343888 0.775997
vt 0.284682 0.773905
vt 0.485334 0.385900
vt 0.537675 0.391526
vt 0.447728 0.753734
vt 0.355326 0.795725
vt 0.404232 0.843783
vt 0.451224 0.812954
vt 0.466384 0.755233
vt 0.521028 0.815398
vt 0.519113 0.754501
vt 0.355970 0.833488
vt 0.341855 0.841100
vt 0.284489 0.840934
vt 0.466062 0.691238
vt 0.519730 0.692748
vt 0.470599 0.620705
vt 0.410864 0.860838
vt 0.469511 0.817386
vt 0.335434 0.354483
vt 0.685392 0.793374
vt 0.621840 0.854907
vt 0.680638 0.888710
vt 0.720837 0.888832
vt 0.558242 0.793374
vt 0.684817 0.984016
vt 0.621888 0.922185
vt 0.563035 0.888766
vt 0.558867 0.984282
vt 0.522781 0.888897
vt 0.030871 0.026202
vt 0.082509 0.026202
vt 0.203664 0.026202
vt 0.152436 0.026202
vt 0.599818 0.966141
vt 0.570214 0.986379
vt 0.647739 0.965486
vt 0.671410 0.986521
vt 0.520396 0.673191
vt 0.476803 0.523476
vt 0.845640 0.026069
vt 0.829183 0.026069
vt 0.735926 0.026069
vt 0.734144 0.043753
vt 0.727355 0.111097
vt 0.030871 0.678393
vt 0.346018 0.845659
vt 0.030871 0.985248
s 1
usemtl custom_dagger_texture
f 79/1/79 2/2/2 77/3/77
f 231/4/231 2/2/2 86/5/86
f 83/6/83 74/7/74 78/8/78
f 3/9/3 86/5/86 2/2/2
f 4/10/4 120/11/120 13/12/13
f 90/13/90 70/14/70 123/15/123
f 5/16/5 105/17/105 9/18/9
f 94/19/94 9/18/9 107/20/107
f 5/16/5 95/21/95 92/22/92
f 94/19/94 117/23/117 5/16/5
f 101/24/101 67/25/67 109/26/109
f 100/27/100 66/28/66 113/29/113
f 10/30/10 96/31/96 110/32/110
f 6/33/6 111/34/111 11/35/11
f 104/36/104 64/37/64 115/38/115
f 8/39/8 116/40/116 12/41/12
f 107/20/107 63/42/63 104/36/104
f 9/18/9 102/43/102 8/39/8
f 4/10/4 110/32/110 89/44/89
f 109/26/109 69/45/69 90/13/90
f 7/46/7 111/34/111 96/31/96
f 113/29/113 68/47/68 101/24/101
f 12/41/12 97/48/97 6/33/6
f 115/38/115 65/49/65 100/27/100
f 117/23/117 118/50/118 5/16/5
f 118/50/118 95/21/95 5/16/5
f 85/51/85 76/52/76 71/53/71
f 123/15/123 76/52/76 124/54/124
f 14/55/14 82/56/82 3/9/3
f 13/12/13 119/57/119 14/55/14
f 3/9/3 75/58/75 71/53/71
f 73/59/73 126/60/126 125/61/125
f 3/9/3 74/7/74 72/62/72
f 75/58/75 125/61/125 127/63/127
f 20/64/20 136/65/136 137/66/137
f 28/67/28 17/68/17 27/69/27
f 155/70/155 18/71/18 28/67/28
f 157/72/157 15/73/15 128/74/128
f 29/75/29 16/76/16 15/73/15
f 158/77/158 16/76/16 30/78/30
f 27/69/27 132/79/132 152/80/152
f 143/81/143 21/82/21 22/83/22
f 22/83/22 19/84/19 20/64/20
f 32/85/32 149/86/149 26/87/26
f 26/87/26 148/88/148 25/89/25
f 31/90/31 26/87/26 24/91/24
f 24/91/24 25/89/25 23/92/23
f 161/93/161 24/91/24 147/94/147
f 147/94/147 23/92/23 146/95/146
f 19/84/19 152/80/152 136/65/136
f 142/96/142 28/67/28 21/82/21
f 21/82/21 27/69/27 19/84/19
f 25/89/25 158/77/158 30/78/30
f 23/92/23 30/78/30 29/75/29
f 146/95/146 29/75/29 157/72/157
f 132/79/132 31/90/31 161/93/161
f 17/68/17 32/85/32 31/90/31
f 18/71/18 162/97/162 32/85/32
f 45/98/45 171/99/171 167/100/167
f 170/101/170 36/102/36 131/103/131
f 55/104/55 166/105/166 175/106/175
f 38/107/38 175/108/175 165/109/165
f 35/110/35 44/111/44 42/112/42
f 47/113/47 34/114/34 178/115/178
f 43/116/43 167/100/167 168/117/168
f 164/118/164 185/119/185 33/120/33
f 49/121/49 46/122/46 35/110/35
f 52/123/52 168/117/168 173/124/173
f 50/125/50 170/101/170 172/126/172
f 53/127/53 51/128/51 56/129/56
f 37/130/37 53/127/53 56/129/56
f 34/114/34 185/119/185 178/115/178
f 54/131/54 165/132/165 174/133/174
f 51/128/51 39/134/39 56/129/56
f 53/127/53 44/111/44 51/128/51
f 40/135/40 173/124/173 166/136/166
f 41/137/41 174/133/174 169/138/169
f 185/119/185 34/114/34 33/120/33
f 52/123/52 44/111/44 43/116/43
f 15/139/15 42/112/42 41/137/41
f 55/140/55 37/130/37 56/129/56
f 54/131/54 37/130/37 38/141/38
f 48/142/48 47/113/47 178/115/178
f 43/116/43 46/122/46 45/98/45
f 50/125/50 35/110/35 36/102/36
f 45/98/45 47/113/47 48/142/48
f 34/114/34 50/125/50 33/120/33
f 40/135/40 51/128/51 52/123/52
f 41/137/41 53/127/53 54/131/54
f 39/134/39 55/104/55 56/129/56
f 33/120/33 172/126/172 164/118/164
f 202/143/202 58/144/58 57/145/57
f 57/145/57 211/146/211 202/143/202
f 202/143/202 205/147/205 58/144/58
f 57/145/57 208/148/208 211/146/211
f 58/144/58 59/149/59 57/145/57
f 205/147/205 60/150/60 58/144/58
f 57/145/57 59/149/59 208/148/208
f 58/144/58 60/150/60 59/149/59
f 60/150/60 209/151/209 59/149/59
f 209/151/209 60/150/60 210/152/210
f 210/152/210 60/150/60 205/147/205
f 212/153/212 22/83/22 61/154/61
f 20/64/20 215/155/215 62/156/62
f 61/154/61 20/64/20 62/156/62
f 61/157/61 209/151/209 212/158/212
f 59/149/59 209/151/209 61/157/61
f 61/157/61 62/159/62 59/149/59
f 62/159/62 208/148/208 59/149/59
f 215/160/215 208/148/208 62/159/62
f 169/138/169 128/161/128 41/137/41
f 41/137/41 128/161/128 15/139/15
f 16/162/16 131/103/131 36/102/36
f 49/121/49 34/114/34 47/113/47
f 178/115/178 171/99/171 48/142/48
f 84/163/84 77/3/77 231/4/231
f 63/42/63 9/18/9 8/39/8
f 64/37/64 6/33/6 65/49/65
f 63/42/63 12/41/12 64/37/64
f 65/49/65 11/35/11 66/28/66
f 68/47/68 10/30/10 67/25/67
f 66/28/66 7/46/7 68/47/68
f 69/45/69 10/30/10 4/10/4
f 69/45/69 13/12/13 70/14/70
f 71/53/71 14/55/14 3/9/3
f 73/59/73 75/58/75 3/9/3
f 71/53/71 127/63/127 85/51/85
f 70/14/70 14/55/14 76/52/76
f 72/62/72 73/59/73 3/9/3
f 72/62/72 83/6/83 126/60/126
f 1/164/1 81/165/81 235/166/235
f 74/7/74 2/2/2 78/8/78
f 78/8/78 230/167/230 83/6/83
f 79/1/79 235/166/235 230/167/230
f 77/3/77 1/164/1 79/1/79
f 79/1/79 1/164/1 235/166/235
f 87/2/87 234/1/234 232/3/232
f 231/4/231 87/2/87 232/3/232
f 83/6/83 233/8/233 227/7/227
f 86/5/86 88/9/88 87/2/87
f 120/11/120 91/10/91 121/12/121
f 223/14/223 90/13/90 123/15/123
f 105/17/105 93/16/93 106/18/106
f 106/18/106 94/19/94 107/20/107
f 93/16/93 92/22/92 95/21/95
f 94/19/94 93/16/93 117/23/117
f 220/25/220 101/24/101 109/26/109
f 219/28/219 100/27/100 113/29/113
f 108/30/108 96/31/96 99/46/99
f 111/34/111 98/33/98 112/35/112
f 217/37/217 104/36/104 115/38/115
f 116/40/116 103/39/103 114/41/114
f 216/42/216 107/20/107 104/36/104
f 102/43/102 106/18/106 103/39/103
f 91/10/91 110/32/110 108/30/108
f 222/45/222 109/26/109 90/13/90
f 99/46/99 111/34/111 112/35/112
f 221/47/221 113/29/113 101/24/101
f 97/48/97 114/41/114 98/33/98
f 218/49/218 115/38/115 100/27/100
f 117/23/117 93/16/93 118/50/118
f 118/50/118 93/16/93 95/21/95
f 85/51/85 229/52/229 124/54/124
f 229/52/229 123/15/123 124/54/124
f 82/56/82 122/55/122 88/9/88
f 119/57/119 121/12/121 122/55/122
f 88/9/88 224/53/224 228/58/228
f 126/60/126 226/59/226 125/61/125
f 88/9/88 225/62/225 227/7/227
f 125/61/125 228/58/228 127/63/127
f 136/65/136 139/64/139 137/66/137
f 133/68/133 154/67/154 153/69/153
f 134/71/134 155/70/155 154/67/154
f 157/72/157 129/73/129 156/75/156
f 156/75/156 130/76/130 159/78/159
f 130/76/130 158/77/158 159/78/159
f 132/79/132 153/69/153 152/80/152
f 140/82/140 143/81/143 141/83/141
f 138/84/138 141/83/141 139/64/139
f 163/85/163 149/86/149 162/97/162
f 151/87/151 148/88/148 149/86/149
f 160/90/160 151/87/151 163/85/163
f 145/91/145 150/89/150 151/87/151
f 161/93/161 145/91/145 160/90/160
f 147/94/147 144/92/144 145/91/145
f 152/80/152 138/84/138 136/65/136
f 154/67/154 142/96/142 140/82/140
f 153/69/153 140/82/140 138/84/138
f 150/89/150 158/77/158 148/88/148
f 144/92/144 159/78/159 150/89/150
f 146/95/146 156/75/156 144/92/144
f 132/79/132 160/90/160 133/68/133
f 133/68/133 163/85/163 134/71/134
f 134/71/134 162/97/162 135/168/135
f 171/99/171 190/98/190 167/100/167
f 170/101/170 131/103/131 180/102/180
f 200/104/200 166/105/166 184/169/184
f 175/108/175 182/107/182 165/109/165
f 189/111/189 179/110/179 187/112/187
f 192/113/192 178/115/178 177/114/177
f 167/100/167 188/116/188 168/117/168
f 164/118/164 176/120/176 185/119/185
f 191/122/191 194/121/194 179/110/179
f 168/117/168 197/123/197 173/124/173
f 170/101/170 195/125/195 172/126/172
f 198/127/198 201/129/201 196/128/196
f 181/130/181 201/129/201 198/127/198
f 177/114/177 178/115/178 185/119/185
f 165/132/165 199/131/199 174/133/174
f 196/128/196 201/129/201 183/134/183
f 198/127/198 189/111/189 187/112/187
f 173/124/173 184/135/184 166/136/166
f 174/133/174 186/137/186 169/138/169
f 185/119/185 176/120/176 177/114/177
f 197/123/197 189/111/189 196/128/196
f 129/139/129 186/137/186 187/112/187
f 181/130/181 200/140/200 201/129/201
f 199/131/199 181/130/181 198/127/198
f 193/142/193 178/115/178 192/113/192
f 188/116/188 191/122/191 189/111/189
f 195/125/195 179/110/179 194/121/194
f 190/98/190 192/113/192 191/122/191
f 195/125/195 177/114/177 176/120/176
f 184/135/184 196/128/196 183/134/183
f 186/137/186 198/127/198 187/112/187
f 183/134/183 200/104/200 184/169/184
f 172/126/172 176/120/176 164/118/164
f 202/143/202 203/145/203 204/144/204
f 203/145/203 202/143/202 211/146/211
f 202/143/202 204/144/204 205/147/205
f 203/145/203 211/146/211 208/148/208
f 204/144/204 203/145/203 206/149/206
f 205/147/205 204/144/204 207/150/207
f 203/145/203 208/148/208 206/149/206
f 204/144/204 206/149/206 207/150/207
f 207/150/207 206/149/206 209/151/209
f 209/151/209 210/152/210 207/150/207
f 210/152/210 205/147/205 207/150/207
f 212/153/212 141/83/141 143/81/143
f 215/155/215 139/64/139 214/156/214
f 213/154/213 139/64/139 141/83/141
f 213/157/213 212/158/212 209/151/209
f 206/149/206 213/157/213 209/151/209
f 213/157/213 206/149/206 214/159/214
f 214/159/214 206/149/206 208/148/208
f 215/160/215 214/159/214 208/148/208
f 169/138/169 186/137/186 128/161/128
f 186/137/186 129/139/129 128/161/128
f 130/162/130 180/102/180 131/103/131
f 194/121/194 192/113/192 177/114/177
f 178/115/178 193/142/193 171/99/171
f 84/163/84 232/3/232 80/164/80
f 216/42/216 103/39/103 106/18/106
f 98/33/98 217/37/217 218/49/218
f 114/41/114 216/42/216 217/37/217
f 112/35/112 218/49/218 219/28/219
f 108/30/108 221/47/221 220/25/220
f 99/46/99 219/28/219 221/47/221
f 222/45/222 108/30/108 220/25/220
f 121/12/121 222/45/222 223/14/223
f 224/53/224 122/55/122 229/52/229
f 226/59/226 88/9/88 228/58/228
f 224/53/224 127/63/127 228/58/228
f 122/55/122 223/14/223 229/52/229
f 225/62/225 88/9/88 226/59/226
f 225/62/225 83/6/83 227/7/227
f 80/164/80 235/166/235 81/165/81
f 87/2/87 227/7/227 233/8/233
f 233/8/233 230/167/230 234/1/234
f 234/1/234 230/167/230 235/166/235
f 232/3/232 234/1/234 80/164/80
f 234/1/234 235/166/235 80/164/80
f 180/102/180 130/162/130 179/110/179
f 129/139/129 179/110/179 130/162/130
f 35/110/35 15/139/15 16/162/16
f 36/102/36 35/110/35 16/162/16
f 79/1/79 78/8/78 2/2/2
f 231/4/231 77/3/77 2/2/2
f 3/9/3 82/56/82 86/5/86
f 4/10/4 89/44/89 120/11/120
f 90/13/90 69/45/69 70/14/70
f 5/16/5 92/22/92 105/17/105
f 94/19/94 5/16/5 9/18/9
f 101/24/101 68/47/68 67/25/67
f 100/27/100 65/49/65 66/28/66
f 10/30/10 7/46/7 96/31/96
f 6/33/6 97/48/97 111/34/111
f 104/36/104 63/42/63 64/37/64
f 8/39/8 102/43/102 116/40/116
f 107/20/107 9/18/9 63/42/63
f 9/18/9 105/17/105 102/43/102
f 4/10/4 10/30/10 110/32/110
f 109/26/109 67/25/67 69/45/69
f 7/46/7 11/35/11 111/34/111
f 113/29/113 66/28/66 68/47/68
f 12/41/12 116/40/116 97/48/97
f 115/38/115 64/37/64 65/49/65
f 85/51/85 124/54/124 76/52/76
f 123/15/123 70/14/70 76/52/76
f 14/55/14 119/57/119 82/56/82
f 13/12/13 120/11/120 119/57/119
f 73/59/73 72/62/72 126/60/126
f 75/58/75 73/59/73 125/61/125
f 20/64/20 19/84/19 136/65/136
f 28/67/28 18/71/18 17/68/17
f 155/70/155 135/168/135 18/71/18
f 157/72/157 29/75/29 15/73/15
f 29/75/29 30/78/30 16/76/16
f 158/77/158 131/170/131 16/76/16
f 27/69/27 17/68/17 132/79/132
f 143/81/143 142/96/142 21/82/21
f 22/83/22 21/82/21 19/84/19
f 32/85/32 162/97/162 149/86/149
f 26/87/26 149/86/149 148/88/148
f 31/90/31 32/85/32 26/87/26
f 24/91/24 26/87/26 25/89/25
f 161/93/161 31/90/31 24/91/24
f 147/94/147 24/91/24 23/92/23
f 19/84/19 27/69/27 152/80/152
f 142/96/142 155/70/155 28/67/28
f 21/82/21 28/67/28 27/69/27
f 25/89/25 148/88/148 158/77/158
f 23/92/23 25/89/25 30/78/30
f 146/95/146 23/92/23 29/75/29
f 132/79/132 17/68/17 31/90/31
f 17/68/17 18/71/18 32/85/32
f 18/71/18 135/168/135 162/97/162
f 45/98/45 48/142/48 171/99/171
f 55/104/55 40/169/40 166/105/166
f 38/107/38 55/140/55 175/108/175
f 35/110/35 46/122/46 44/111/44
f 43/116/43 45/98/45 167/100/167
f 49/121/49 47/113/47 46/122/46
f 52/123/52 43/116/43 168/117/168
f 50/125/50 36/102/36 170/101/170
f 54/131/54 38/141/38 165/132/165
f 53/127/53 42/112/42 44/111/44
f 40/135/40 52/123/52 173/124/173
f 41/137/41 54/131/54 174/133/174
f 52/123/52 51/128/51 44/111/44
f 55/140/55 38/107/38 37/130/37
f 54/131/54 53/127/53 37/130/37
f 43/116/43 44/111/44 46/122/46
f 50/125/50 49/121/49 35/110/35
f 45/98/45 46/122/46 47/113/47
f 34/114/34 49/121/49 50/125/50
f 40/135/40 39/134/39 51/128/51
f 41/137/41 42/112/42 53/127/53
f 39/134/39 40/169/40 55/104/55
f 33/120/33 50/125/50 172/126/172
f 212/153/212 143/81/143 22/83/22
f 20/64/20 137/66/137 215/155/215
f 61/154/61 22/83/22 20/64/20
f 84/163/84 1/164/1 77/3/77
f 64/37/64 12/41/12 6/33/6
f 63/42/63 8/39/8 12/41/12
f 65/49/65 6/33/6 11/35/11
f 68/47/68 7/46/7 10/30/10
f 66/28/66 11/35/11 7/46/7
f 69/45/69 67/25/67 10/30/10
f 69/45/69 4/10/4 13/12/13
f 71/53/71 76/52/76 14/55/14
f 71/53/71 75/58/75 127/63/127
f 70/14/70 13/12/13 14/55/14
f 72/62/72 74/7/74 83/6/83
f 74/7/74 3/9/3 2/2/2
f 78/8/78 79/1/79 230/167/230
f 87/2/87 233/8/233 234/1/234
f 231/4/231 86/5/86 87/2/87
f 86/5/86 82/56/82 88/9/88
f 120/11/120 89/44/89 91/10/91
f 223/14/223 222/45/222 90/13/90
f 105/17/105 92/22/92 93/16/93
f 106/18/106 93/16/93 94/19/94
f 220/25/220 221/47/221 101/24/101
f 219/28/219 218/49/218 100/27/100
f 108/30/108 110/32/110 96/31/96
f 111/34/111 97/48/97 98/33/98
f 217/37/217 216/42/216 104/36/104
f 116/40/116 102/43/102 103/39/103
f 216/42/216 106/18/106 107/20/107
f 102/43/102 105/17/105 106/18/106
f 91/10/91 89/44/89 110/32/110
f 222/45/222 220/25/220 109/26/109
f 99/46/99 96/31/96 111/34/111
f 221/47/221 219/28/219 113/29/113
f 97/48/97 116/40/116 114/41/114
f 218/49/218 217/37/217 115/38/115
f 85/51/85 224/53/224 229/52/229
f 229/52/229 223/14/223 123/15/123
f 82/56/82 119/57/119 122/55/122
f 119/57/119 120/11/120 121/12/121
f 126/60/126 225/62/225 226/59/226
f 125/61/125 226/59/226 228/58/228
f 136/65/136 138/84/138 139/64/139
f 133/68/133 134/71/134 154/67/154
f 134/71/134 135/168/135 155/70/155
f 157/72/157 128/74/128 129/73/129
f 156/75/156 129/73/129 130/76/130
f 130/76/130 131/170/131 158/77/158
f 132/79/132 133/68/133 153/69/153
f 140/82/140 142/96/142 143/81/143
f 138/84/138 140/82/140 141/83/141
f 163/85/163 151/87/151 149/86/149
f 151/87/151 150/89/150 148/88/148
f 160/90/160 145/91/145 151/87/151
f 145/91/145 144/92/144 150/89/150
f 161/93/161 147/94/147 145/91/145
f 147/94/147 146/95/146 144/92/144
f 152/80/152 153/69/153 138/84/138
f 154/67/154 155/70/155 142/96/142
f 153/69/153 154/67/154 140/82/140
f 150/89/150 159/78/159 158/77/158
f 144/92/144 156/75/156 159/78/159
f 146/95/146 157/72/157 156/75/156
f 132/79/132 161/93/161 160/90/160
f 133/68/133 160/90/160 163/85/163
f 134/71/134 163/85/163 162/97/162
f 171/99/171 193/142/193 190/98/190
f 200/104/200 175/106/175 166/105/166
f 175/108/175 200/140/200 182/107/182
f 189/111/189 191/122/191 179/110/179
f 167/100/167 190/98/190 188/116/188
f 191/122/191 192/113/192 194/121/194
f 168/117/168 188/116/188 197/123/197
f 170/101/170 180/102/180 195/125/195
f 165/132/165 182/141/182 199/131/199
f 198/127/198 196/128/196 189/111/189
f 173/124/173 197/123/197 184/135/184
f 174/133/174 199/131/199 186/137/186
f 197/123/197 188/116/188 189/111/189
f 181/130/181 182/107/182 200/140/200
f 199/131/199 182/141/182 181/130/181
f 188/116/188 190/98/190 191/122/191
f 195/125/195 180/102/180 179/110/179
f 190/98/190 193/142/193 192/113/192
f 195/125/195 194/121/194 177/114/177
f 184/135/184 197/123/197 196/128/196
f 186/137/186 199/131/199 198/127/198
f 183/134/183 201/129/201 200/104/200
f 172/126/172 195/125/195 176/120/176
f 212/153/212 213/154/213 141/83/141
f 215/155/215 137/66/137 139/64/139
f 213/154/213 214/156/214 139/64/139
f 84/163/84 231/4/231 232/3/232
f 98/33/98 114/41/114 217/37/217
f 114/41/114 103/39/103 216/42/216
f 112/35/112 98/33/98 218/49/218
f 108/30/108 99/46/99 221/47/221
f 99/46/99 112/35/112 219/28/219
f 222/45/222 91/10/91 108/30/108
f 121/12/121 91/10/91 222/45/222
f 224/53/224 88/9/88 122/55/122
f 224/53/224 85/51/85 127/63/127
f 122/55/122 121/12/121 223/14/223
f 225/62/225 126/60/126 83/6/83
f 87/2/87 88/9/88 227/7/227
f 233/8/233 83/6/83 230/167/230
f 129/139/129 187/112/187 179/110/179
f 35/110/35 42/112/42 15/139/15
